<?xml version="1.0" encoding="UTF-8"?>
<svg xmlns="http://www.w3.org/2000/svg" width="1120" height="260" viewBox="0 0 1120 260" role="img" aria-labelledby="title"><title id="title">ISSANA - Rådgivende Ingeniører</title><path d="M48.3 48.3H211.7V211.7H48.3Z M69.2 69.2V190.8H190.8V69.2Z" fill="#11201D" fill-rule="evenodd"/><path d="M86.3 82.5H173.7V105.3H141.4V154.7H173.7V177.5H86.3V154.7H118.6V105.3H86.3Z" fill="#11201D"/><rect x="179.4" y="179.4" width="20.9" height="20.9" fill="#C8653E"/><path d="M277.2734375 145.0V71.390625H292.640625V145.0Z" fill="#11201D"/><path d="M345.2890625 145.984375Q337.03125 145.984375 330.27734375 143.60546875Q323.5234375 141.2265625 319.5859375 136.03125Q315.6484375 130.8359375 315.6484375 122.46875H331.34375Q331.5625 126.734375 333.39453125 129.16796875Q335.2265625 131.6015625 338.37109375 132.640625Q341.515625 133.6796875 345.5625 133.6796875Q349.4453125 133.6796875 352.3984375 132.75Q355.3515625 131.8203125 357.01953125 129.90625Q358.6875 127.9921875 358.6875 124.984375Q358.6875 122.0859375 357.29296875 120.171875Q355.8984375 118.2578125 352.2890625 116.69921875Q348.6796875 115.140625 342.1171875 113.3359375Q334.515625 111.1484375 328.96484375 108.5234375Q323.4140625 105.8984375 320.37890625 101.7421875Q317.34375 97.5859375 317.34375 90.9140625Q317.34375 83.75 320.81640625 79.23828125Q324.2890625 74.7265625 330.4140625 72.59375Q336.5390625 70.4609375 344.4140625 70.4609375Q352.0703125 70.4609375 358.359375 72.7578125Q364.6484375 75.0546875 368.421875 79.7578125Q372.1953125 84.4609375 372.1953125 91.734375H356.4453125Q356.5 87.03125 352.9453125 84.70703125Q349.390625 82.3828125 344.4140625 82.3828125Q339.546875 82.3828125 336.29296875 84.21484375Q333.0390625 86.046875 333.0390625 89.875Q333.0390625 92.0625 334.40625 93.73046875Q335.7734375 95.3984375 339.4921875 96.984375Q343.2109375 98.5703125 350.265625 100.59375Q358.6328125 103.0546875 363.96484375 105.76171875Q369.296875 108.46875 371.8671875 112.76171875Q374.4375 117.0546875 374.4375 124.0546875Q374.4375 131.875 370.58203125 136.6875Q366.7265625 141.5 360.1640625 143.7421875Q353.6015625 145.984375 345.2890625 145.984375Z" fill="#11201D"/><path d="M422.546875 145.984375Q414.2890625 145.984375 407.53515625 143.60546875Q400.78125 141.2265625 396.84375 136.03125Q392.90625 130.8359375 392.90625 122.46875H408.6015625Q408.8203125 126.734375 410.65234375 129.16796875Q412.484375 131.6015625 415.62890625 132.640625Q418.7734375 133.6796875 422.8203125 133.6796875Q426.703125 133.6796875 429.65625 132.75Q432.609375 131.8203125 434.27734375 129.90625Q435.9453125 127.9921875 435.9453125 124.984375Q435.9453125 122.0859375 434.55078125 120.171875Q433.15625 118.2578125 429.546875 116.69921875Q425.9375 115.140625 419.375 113.3359375Q411.7734375 111.1484375 406.22265625 108.5234375Q400.671875 105.8984375 397.63671875 101.7421875Q394.6015625 97.5859375 394.6015625 90.9140625Q394.6015625 83.75 398.07421875 79.23828125Q401.546875 74.7265625 407.671875 72.59375Q413.796875 70.4609375 421.671875 70.4609375Q429.328125 70.4609375 435.6171875 72.7578125Q441.90625 75.0546875 445.6796875 79.7578125Q449.453125 84.4609375 449.453125 91.734375H433.703125Q433.7578125 87.03125 430.203125 84.70703125Q426.6484375 82.3828125 421.671875 82.3828125Q416.8046875 82.3828125 413.55078125 84.21484375Q410.296875 86.046875 410.296875 89.875Q410.296875 92.0625 411.6640625 93.73046875Q413.03125 95.3984375 416.75 96.984375Q420.46875 98.5703125 427.5234375 100.59375Q435.890625 103.0546875 441.22265625 105.76171875Q446.5546875 108.46875 449.125 112.76171875Q451.6953125 117.0546875 451.6953125 124.0546875Q451.6953125 131.875 447.83984375 136.6875Q443.984375 141.5 437.421875 143.7421875Q430.859375 145.984375 422.546875 145.984375Z" fill="#11201D"/><path d="M467.046875 145.0 493.515625 71.390625H509.6484375L536.171875 145.0H520.0390625L514.7890625 128.8125H488.15625L482.8515625 145.0ZM491.9296875 116.0703125H511.015625L501.5 86.59375Z" fill="#11201D"/><path d="M556.0625 145.0V71.390625H571.15625L605.0078125 120.9921875V71.390625H619.4453125V145.0H604.3515625L570.4453125 95.0703125V145.0Z" fill="#11201D"/><path d="M639.390625 145.0 665.859375 71.390625H681.9921875L708.515625 145.0H692.3828125L687.1328125 128.8125H660.5L655.1953125 145.0ZM664.2734375 116.0703125H683.359375L673.84375 86.59375Z" fill="#11201D"/><path d="M274.84326171875 202.0V185.5693359375H281.056640625Q282.47265625 185.5693359375 283.638427734375 186.02099609375Q284.80419921875 186.47265625 285.51220703125 187.43701171875Q286.22021484375 188.4013671875 286.22021484375 189.939453125Q286.22021484375 191.501953125 285.347412109375 192.6005859375Q284.474609375 193.69921875 282.765625 194.08984375Q283.65673828125 194.22412109375 284.2548828125 194.657470703125Q284.85302734375 195.0908203125 285.261962890625 195.88427734375Q285.6708984375 196.677734375 285.97607421875 197.88623046875L287.05029296875 202.0H284.81640625L283.8642578125 198.22802734375Q283.58349609375 197.0927734375 283.205078125 196.390869140625Q282.82666015625 195.68896484375 282.27734375 195.365478515625Q281.72802734375 195.0419921875 280.89794921875 195.0419921875H277.04052734375V202.0ZM277.04052734375 193.2109375H280.77587890625Q281.67919921875 193.2109375 282.41162109375 192.869140625Q283.14404296875 192.52734375 283.577392578125 191.88037109375Q284.0107421875 191.2333984375 284.0107421875 190.31787109375Q284.0107421875 188.9384765625 283.198974609375 188.16943359375Q282.38720703125 187.400390625 280.84912109375 187.400390625H277.04052734375Z" fill="#11201D"/><path d="M293.53388671875 202.0 299.68623046875 185.5693359375H301.993359375L308.08466796875 202.0H305.801953125L304.25166015625 197.39794921875H297.41572265625L295.7921875 202.0ZM298.0138671875 195.5546875H303.6046875L300.83369140625 187.75439453125ZM300.80927734375 185.19091796875Q299.68623046875 185.19091796875 298.97822265625 184.50732421875Q298.27021484375 183.82373046875 298.27021484375 182.712890625Q298.27021484375 181.6142578125 298.97822265625 180.936767578125Q299.68623046875 180.25927734375 300.80927734375 180.25927734375Q301.93232421875 180.25927734375 302.64033203125 180.936767578125Q303.34833984375 181.6142578125 303.34833984375 182.712890625Q303.34833984375 183.82373046875 302.64033203125 184.50732421875Q301.93232421875 185.19091796875 300.80927734375 185.19091796875ZM300.80927734375 184.03125Q301.3830078125 184.03125 301.73701171875 183.658935546875Q302.091015625 183.28662109375 302.091015625 182.70068359375Q302.091015625 182.13916015625 301.73701171875 181.766845703125Q301.3830078125 181.39453125 300.80927734375 181.39453125Q300.24775390625 181.39453125 299.89375 181.766845703125Q299.53974609375 182.13916015625 299.53974609375 182.70068359375Q299.53974609375 183.28662109375 299.89375 183.658935546875Q300.24775390625 184.03125 300.80927734375 184.03125Z" fill="#11201D"/><path d="M315.703515625 202.0V185.5693359375H320.976953125Q323.55263671875 185.5693359375 325.371484375 186.539794921875Q327.19033203125 187.51025390625 328.148583984375 189.353515625Q329.1068359375 191.19677734375 329.1068359375 193.78466796875Q329.1068359375 196.384765625 328.14248046875 198.22802734375Q327.178125 200.0712890625 325.365380859375 201.03564453125Q323.55263671875 202.0 320.976953125 202.0ZM317.90078125 200.15673828125H320.488671875Q322.64931640625 200.15673828125 324.053125 199.467041015625Q325.45693359375 198.77734375 326.152734375 197.355224609375Q326.84853515625 195.93310546875 326.84853515625 193.7724609375Q326.84853515625 191.6240234375 326.14052734375 190.214111328125Q325.43251953125 188.80419921875 324.022607421875 188.1083984375Q322.6126953125 187.41259765625 320.488671875 187.41259765625H317.90078125Z" fill="#11201D"/><path d="M344.75791015625003 202.2197265625Q342.27988281250003 202.2197265625 340.58310546875003 201.15771484375Q338.88632812500003 200.095703125 338.01962890625003 198.197509765625Q337.15292968750003 196.29931640625 337.15292968750003 193.796875Q337.15292968750003 191.2822265625 338.01962890625003 189.3779296875Q338.88632812500003 187.4736328125 340.58310546875003 186.41162109375Q342.27988281250003 185.349609375 344.75791015625003 185.349609375Q345.96640625000003 185.349609375 347.08945312500003 185.673095703125Q348.21250000000003 185.99658203125 349.12192382812503 186.649658203125Q350.03134765625003 187.302734375 350.61118164062503 188.29150390625Q351.19101562500003 189.2802734375 351.32529296875003 190.623046875H349.10361328125003Q348.99375000000003 189.68310546875 348.44443359375003 188.895751953125Q347.89511718750003 188.1083984375 346.96127929687503 187.626220703125Q346.02744140625003 187.14404296875 344.73349609375003 187.14404296875Q342.84140625000003 187.14404296875 341.66342773437503 188.041259765625Q340.48544921875003 188.9384765625 339.93002929687503 190.43994140625Q339.37460937500003 191.94140625 339.37460937500003 193.796875Q339.37460937500003 195.64013671875 339.93002929687503 197.135498046875Q340.48544921875003 198.630859375 341.66953125000003 199.509765625Q342.85361328125003 200.388671875 344.75791015625003 200.388671875Q346.39365234375003 200.388671875 347.44345703125003 199.772216796875Q348.49326171875003 199.15576171875 349.01206054687503 198.051025390625Q349.53085937500003 196.9462890625 349.55527343750003 195.505859375H345.00205078125003V193.68701171875H351.69150390625003V194.96875Q351.69150390625003 197.10498046875 350.91635742187503 198.74072265625Q350.14121093750003 200.37646484375 348.60312500000003 201.298095703125Q347.06503906250003 202.2197265625 344.75791015625003 202.2197265625Z" fill="#11201D"/><path d="M360.45781250000005 202.0V185.5693359375H362.65507812500005V202.0Z" fill="#11201D"/><path d="M376.16992187500006 202.0 370.23730468750006 185.5693359375H372.56884765625006L377.46386718750006 199.6806640625L382.35888671875006 185.5693359375H384.67822265625006L378.70898437500006 202.0Z" fill="#11201D"/><path d="M392.27265625000007 202.0V185.5693359375H402.74628906250007V187.400390625H394.46992187500007V192.63720703125H402.08710937500007V194.44384765625H394.46992187500007V200.1689453125H402.74628906250007V202.0Z" fill="#11201D"/><path d="M411.5858398437501 202.0V185.5693359375H413.8197265625001L422.8407226562501 198.64306640625V185.5693359375H424.9159179687501V202.0H422.6698242187501L413.6610351562501 188.90185546875V202.0Z" fill="#11201D"/><path d="M434.4024414062501 202.0V185.5693359375H439.6758789062501Q442.2515625000001 185.5693359375 444.0704101562501 186.539794921875Q445.8892578125001 187.51025390625 446.8475097656251 189.353515625Q447.8057617187501 191.19677734375 447.8057617187501 193.78466796875Q447.8057617187501 196.384765625 446.8414062500001 198.22802734375Q445.8770507812501 200.0712890625 444.0643066406251 201.03564453125Q442.2515625000001 202.0 439.6758789062501 202.0ZM436.5997070312501 200.15673828125H439.1875976562501Q441.3482421875001 200.15673828125 442.7520507812501 199.467041015625Q444.1558593750001 198.77734375 444.8516601562501 197.355224609375Q445.5474609375001 195.93310546875 445.5474609375001 193.7724609375Q445.5474609375001 191.6240234375 444.8394531250001 190.214111328125Q444.1314453125001 188.80419921875 442.7215332031251 188.1083984375Q441.3116210937501 187.41259765625 439.1875976562501 187.41259765625H436.5997070312501Z" fill="#11201D"/><path d="M456.5720703125001 202.0V185.5693359375H467.0457031250001V187.400390625H458.7693359375001V192.63720703125H466.3865234375001V194.44384765625H458.7693359375001V200.1689453125H467.0457031250001V202.0Z" fill="#11201D"/><path d="M492.1852539062501 202.0V185.5693359375H494.3825195312501V202.0Z" fill="#11201D"/><path d="M503.85683593750014 202.0V185.5693359375H506.09072265625014L515.1117187500001 198.64306640625V185.5693359375H517.1869140625001V202.0H514.9408203125001L505.93203125000014 188.90185546875V202.0Z" fill="#11201D"/><path d="M533.5582031250001 202.2197265625Q531.0801757812501 202.2197265625 529.3833984375001 201.15771484375Q527.6866210937501 200.095703125 526.8199218750001 198.197509765625Q525.9532226562501 196.29931640625 525.9532226562501 193.796875Q525.9532226562501 191.2822265625 526.8199218750001 189.3779296875Q527.6866210937501 187.4736328125 529.3833984375001 186.41162109375Q531.0801757812501 185.349609375 533.5582031250001 185.349609375Q534.7666992187501 185.349609375 535.8897460937501 185.673095703125Q537.0127929687501 185.99658203125 537.9222167968751 186.649658203125Q538.8316406250001 187.302734375 539.4114746093751 188.29150390625Q539.9913085937501 189.2802734375 540.1255859375001 190.623046875H537.9039062500001Q537.7940429687501 189.68310546875 537.2447265625001 188.895751953125Q536.6954101562501 188.1083984375 535.7615722656251 187.626220703125Q534.8277343750001 187.14404296875 533.5337890625001 187.14404296875Q531.6416992187501 187.14404296875 530.4637207031251 188.041259765625Q529.2857421875001 188.9384765625 528.7303222656251 190.43994140625Q528.1749023437501 191.94140625 528.1749023437501 193.796875Q528.1749023437501 195.64013671875 528.7303222656251 197.135498046875Q529.2857421875001 198.630859375 530.4698242187501 199.509765625Q531.6539062500001 200.388671875 533.5582031250001 200.388671875Q535.1939453125001 200.388671875 536.2437500000001 199.772216796875Q537.2935546875001 199.15576171875 537.8123535156251 198.051025390625Q538.3311523437501 196.9462890625 538.3555664062501 195.505859375H533.8023437500001V193.68701171875H540.4917968750001V194.96875Q540.4917968750001 197.10498046875 539.7166503906251 198.74072265625Q538.9415039062501 200.37646484375 537.4034179687501 201.298095703125Q535.8653320312501 202.2197265625 533.5582031250001 202.2197265625Z" fill="#11201D"/><path d="M549.25810546875 202.0V185.5693359375H559.73173828125V187.400390625H551.45537109375V192.63720703125H559.07255859375V194.44384765625H551.45537109375V200.1689453125H559.73173828125V202.0Z" fill="#11201D"/><path d="M568.5712890625 202.0V185.5693359375H570.80517578125L579.826171875 198.64306640625V185.5693359375H581.9013671875V202.0H579.6552734375L570.646484375 188.90185546875V202.0Z" fill="#11201D"/><path d="M591.387890625 202.0V185.5693359375H593.58515625V202.0Z" fill="#11201D"/><path d="M603.4989257812499 202.79345703125 602.3392578124999 201.8046875 616.8167968749999 184.80029296875 617.9886718749999 185.77685546875ZM610.1761718749999 202.2197265625Q607.5882812499999 202.2197265625 605.8426757812499 201.1455078125Q604.0970703124999 200.0712890625 603.2181640624999 198.17919921875Q602.3392578124999 196.287109375 602.3392578124999 193.796875Q602.3392578124999 191.306640625 603.2181640624999 189.40234375Q604.0970703124999 187.498046875 605.8426757812499 186.423828125Q607.5882812499999 185.349609375 610.1761718749999 185.349609375Q612.7518554687499 185.349609375 614.4852539062499 186.423828125Q616.2186523437499 187.498046875 617.1036621093749 189.40234375Q617.9886718749999 191.306640625 617.9886718749999 193.796875Q617.9886718749999 196.287109375 617.1036621093749 198.17919921875Q616.2186523437499 200.0712890625 614.4852539062499 201.1455078125Q612.7518554687499 202.2197265625 610.1761718749999 202.2197265625ZM610.1761718749999 200.44970703125Q612.1537109374999 200.44970703125 613.3866210937499 199.552490234375Q614.6195312499999 198.6552734375 615.1871582031249 197.147705078125Q615.7547851562499 195.64013671875 615.7547851562499 193.796875Q615.7547851562499 191.94140625 615.1871582031249 190.433837890625Q614.6195312499999 188.92626953125 613.3866210937499 188.029052734375Q612.1537109374999 187.1318359375 610.1761718749999 187.1318359375Q608.1742187499999 187.1318359375 606.9474121093749 188.029052734375Q605.7206054687499 188.92626953125 605.1468749999999 190.433837890625Q604.5731445312499 191.94140625 604.5731445312499 193.796875Q604.5731445312499 195.64013671875 605.1468749999999 197.147705078125Q605.7206054687499 198.6552734375 606.9535156249999 199.552490234375Q608.1864257812499 200.44970703125 610.1761718749999 200.44970703125Z" fill="#11201D"/><path d="M626.7427734374999 202.0V185.5693359375H632.9561523437499Q634.3721679687499 185.5693359375 635.5379394531249 186.02099609375Q636.7037109374999 186.47265625 637.4117187499999 187.43701171875Q638.1197265624999 188.4013671875 638.1197265624999 189.939453125Q638.1197265624999 191.501953125 637.2469238281249 192.6005859375Q636.3741210937499 193.69921875 634.6651367187499 194.08984375Q635.5562499999999 194.22412109375 636.1543945312499 194.657470703125Q636.7525390624999 195.0908203125 637.1614746093749 195.88427734375Q637.5704101562499 196.677734375 637.8755859374999 197.88623046875L638.9498046874999 202.0H636.7159179687499L635.7637695312499 198.22802734375Q635.4830078124999 197.0927734375 635.1045898437499 196.390869140625Q634.7261718749999 195.68896484375 634.1768554687499 195.365478515625Q633.6275390624999 195.0419921875 632.7974609374999 195.0419921875H628.9400390624999V202.0ZM628.9400390624999 193.2109375H632.6753906249999Q633.5787109374999 193.2109375 634.3111328124999 192.869140625Q635.0435546874999 192.52734375 635.4769042968749 191.88037109375Q635.9102539062499 191.2333984375 635.9102539062499 190.31787109375Q635.9102539062499 188.9384765625 635.0984863281249 188.16943359375Q634.2867187499999 187.400390625 632.7486328124999 187.400390625H628.9400390624999Z" fill="#11201D"/><path d="M647.3010742187498 202.0V185.5693359375H657.7747070312498V187.400390625H649.4983398437498V192.63720703125H657.1155273437498V194.44384765625H649.4983398437498V200.1689453125H657.7747070312498V202.0Z" fill="#11201D"/><path d="M666.6142578124998 202.0V185.5693359375H672.8276367187498Q674.2436523437498 185.5693359375 675.4094238281248 186.02099609375Q676.5751953124998 186.47265625 677.2832031249998 187.43701171875Q677.9912109374998 188.4013671875 677.9912109374998 189.939453125Q677.9912109374998 191.501953125 677.1184082031248 192.6005859375Q676.2456054687498 193.69921875 674.5366210937498 194.08984375Q675.4277343749998 194.22412109375 676.0258789062498 194.657470703125Q676.6240234374998 195.0908203125 677.0329589843748 195.88427734375Q677.4418945312498 196.677734375 677.7470703124998 197.88623046875L678.8212890624998 202.0H676.5874023437498L675.6352539062498 198.22802734375Q675.3544921874998 197.0927734375 674.9760742187498 196.390869140625Q674.5976562499998 195.68896484375 674.0483398437498 195.365478515625Q673.4990234374998 195.0419921875 672.6689453124998 195.0419921875H668.8115234374998V202.0ZM668.8115234374998 193.2109375H672.5468749999998Q673.4501953124998 193.2109375 674.1826171874998 192.869140625Q674.9150390624998 192.52734375 675.3483886718748 191.88037109375Q675.7817382812498 191.2333984375 675.7817382812498 190.31787109375Q675.7817382812498 188.9384765625 674.9699707031248 188.16943359375Q674.1582031249998 187.400390625 672.6201171874998 187.400390625H668.8115234374998Z" fill="#11201D"/></svg>
